<svg width="16" height="16" viewBox="0 0 16 16" fill="none" xmlns="http://www.w3.org/2000/svg">
<g clip-path="url(#clip0_1298_223)">
<path d="M8.11719 13.6094L8.58594 13.1641C8.70312 13.0469 8.70312 12.8594 8.58594 12.7656L4.95312 9.10938H12.9688C13.1094 9.10938 13.25 8.99219 13.25 8.82812V8.17188C13.25 8.03125 13.1094 7.89062 12.9688 7.89062H4.95312L8.58594 4.25781C8.70312 4.16406 8.70312 3.97656 8.58594 3.85938L8.11719 3.41406C8.02344 3.29688 7.83594 3.29688 7.71875 3.41406L2.82031 8.3125C2.70312 8.42969 2.70312 8.59375 2.82031 8.71094L7.71875 13.6094C7.83594 13.7266 8.02344 13.7266 8.11719 13.6094Z" fill="#101825"/>
</g>
<defs>
<clipPath id="clip0_1298_223">
<rect width="16" height="16" fill="white"/>
</clipPath>
</defs>
</svg>
