<svg width="16" height="16" viewBox="0 0 16 16" fill="none" xmlns="http://www.w3.org/2000/svg">
<g clip-path="url(#clip0_1298_225)">
<path d="M7.85938 3.41406L7.39062 3.85938C7.27344 3.97656 7.27344 4.16406 7.39062 4.25781L11.0234 7.89062H3.03125C2.86719 7.89062 2.75 8.03125 2.75 8.17188V8.82812C2.75 8.99219 2.86719 9.10938 3.03125 9.10938H11.0234L7.39062 12.7656C7.27344 12.8594 7.27344 13.0469 7.39062 13.1641L7.85938 13.6094C7.95312 13.7266 8.14062 13.7266 8.25781 13.6094L13.1562 8.71094C13.2734 8.59375 13.2734 8.42969 13.1562 8.3125L8.25781 3.41406C8.14062 3.29688 7.95312 3.29688 7.85938 3.41406Z" fill="white"/>
</g>
<defs>
<clipPath id="clip0_1298_225">
<rect width="16" height="16" fill="white"/>
</clipPath>
</defs>
</svg>
