<svg width="20" height="20" viewBox="0 0 20 20" fill="none" xmlns="http://www.w3.org/2000/svg">
<g clip-path="url(#clip0_586_134)">
<path d="M12.0801 6.27344L11.4941 6.85938C11.377 7.00586 11.377 7.21094 11.5234 7.35742L13.8672 9.61328H3.78906C3.58398 9.61328 3.4375 9.78906 3.4375 9.96484V10.7852C3.4375 10.9902 3.58398 11.1367 3.78906 11.1367H13.8672L11.5234 13.4219C11.377 13.5684 11.377 13.7734 11.4941 13.9199L12.0801 14.5059C12.2266 14.623 12.4316 14.623 12.5781 14.5059L16.4453 10.6387C16.5625 10.4922 16.5625 10.2871 16.4453 10.1406L12.5781 6.27344C12.4316 6.15625 12.2266 6.15625 12.0801 6.27344Z" fill="#4CB147"/>
</g>
<defs>
<clipPath id="clip0_586_134">
<rect width="20" height="20" fill="white"/>
</clipPath>
</defs>
</svg>
