<svg width="24" height="24" viewBox="0 0 24 24" fill="none" xmlns="http://www.w3.org/2000/svg">
<g clip-path="url(#clip0_1157_44)">
<path d="M18.1875 20.125C19.1016 20.125 19.875 19.3867 19.875 18.4375V6.0625C19.875 5.14844 19.1016 4.375 18.1875 4.375H5.8125C4.86328 4.375 4.125 5.14844 4.125 6.0625V18.4375C4.125 19.3867 4.86328 20.125 5.8125 20.125H18.1875ZM10.9805 16.6797C10.7695 16.9258 10.3828 16.9258 10.1719 16.6797L6.51562 13.0234C6.30469 12.8125 6.30469 12.4609 6.51562 12.25L7.32422 11.4414C7.53516 11.2305 7.88672 11.2305 8.09766 11.4414L10.5938 13.9023L15.8672 8.62891C16.0781 8.41797 16.4297 8.41797 16.6406 8.62891L17.4492 9.4375C17.6602 9.64844 17.6602 10 17.4492 10.2109L10.9805 16.6797Z" fill="#4CB147"/>
</g>
<defs>
<clipPath id="clip0_1157_44">
<rect width="24" height="24" fill="white"/>
</clipPath>
</defs>
</svg>
